<svg xmlns="http://www.w3.org/2000/svg" xmlns:xlink="http://www.w3.org/1999/xlink" width="700" zoomAndPan="magnify" viewBox="0 0 525 225" height="300" preserveAspectRatio="xMidYMid meet" version="1.0"><defs><g/></defs><g fill="#d9d9d9" fill-opacity="1"><g transform="translate(148.682991, 126.001469)"><g><path d="M 51 0 L 38.09375 0 L 35.234375 -4.96875 L 16.078125 -4.96875 L 13.234375 0 L 0.3125 0 L 19.75 -30.34375 L 31.578125 -30.34375 Z M 30.9375 -12.484375 L 25.671875 -21.6875 L 20.375 -12.484375 Z M 30.9375 -12.484375 "/></g></g></g><g fill="#d9d9d9" fill-opacity="1"><g transform="translate(199.996294, 126.001469)"><g><path d="M 25.15625 0 L 3.390625 0 L 3.390625 -30.34375 L 25.625 -30.34375 C 29.582031 -30.34375 32.835938 -30.160156 35.390625 -29.796875 C 37.941406 -29.441406 39.90625 -28.878906 41.28125 -28.109375 C 42.664062 -27.347656 43.601562 -26.375 44.09375 -25.1875 C 44.59375 -24 44.84375 -22.582031 44.84375 -20.9375 C 44.800781 -19.632812 44.441406 -18.554688 43.765625 -17.703125 C 43.097656 -16.847656 42.316406 -16.210938 41.421875 -15.796875 C 40.523438 -15.378906 39.738281 -15.171875 39.0625 -15.171875 C 39.726562 -15.171875 40.503906 -15.039062 41.390625 -14.78125 C 42.285156 -14.519531 43.148438 -14.140625 43.984375 -13.640625 C 44.828125 -13.148438 45.523438 -12.550781 46.078125 -11.84375 C 46.640625 -11.144531 46.921875 -10.34375 46.921875 -9.4375 C 46.921875 -8.25 46.78125 -7.160156 46.5 -6.171875 C 46.226562 -5.191406 45.679688 -4.316406 44.859375 -3.546875 C 44.035156 -2.785156 42.816406 -2.140625 41.203125 -1.609375 C 39.597656 -1.085938 37.492188 -0.6875 34.890625 -0.40625 C 32.285156 -0.132812 29.039062 0 25.15625 0 Z M 24.4375 -17.78125 C 26.300781 -17.78125 27.742188 -17.867188 28.765625 -18.046875 C 29.796875 -18.234375 30.503906 -18.515625 30.890625 -18.890625 C 31.285156 -19.265625 31.484375 -19.738281 31.484375 -20.3125 C 31.484375 -20.90625 31.285156 -21.390625 30.890625 -21.765625 C 30.503906 -22.140625 29.796875 -22.414062 28.765625 -22.59375 C 27.742188 -22.769531 26.300781 -22.859375 24.4375 -22.859375 L 16.125 -22.859375 L 16.125 -17.78125 Z M 24.4375 -7.484375 C 26.34375 -7.484375 27.890625 -7.53125 29.078125 -7.625 C 30.265625 -7.726562 31.132812 -7.957031 31.6875 -8.3125 C 32.238281 -8.664062 32.515625 -9.238281 32.515625 -10.03125 C 32.515625 -10.820312 32.238281 -11.394531 31.6875 -11.75 C 31.132812 -12.113281 30.265625 -12.34375 29.078125 -12.4375 C 27.890625 -12.53125 26.34375 -12.578125 24.4375 -12.578125 L 16.125 -12.578125 L 16.125 -7.484375 Z M 24.4375 -7.484375 "/></g></g></g><g fill="#d9d9d9" fill-opacity="1"><g transform="translate(248.601101, 126.001469)"><g><path d="M 22.96875 0.65625 C 15.457031 0.65625 9.929688 -0.890625 6.390625 -3.984375 C 3.253906 -6.710938 1.6875 -10.441406 1.6875 -15.171875 C 1.6875 -19.890625 3.253906 -23.613281 6.390625 -26.34375 C 9.929688 -29.4375 15.457031 -30.984375 22.96875 -30.984375 C 30.46875 -30.984375 35.988281 -29.4375 39.53125 -26.34375 C 42.664062 -23.613281 44.234375 -19.890625 44.234375 -15.171875 C 44.234375 -10.441406 42.664062 -6.710938 39.53125 -3.984375 C 35.988281 -0.890625 30.46875 0.65625 22.96875 0.65625 Z M 22.96875 -7.484375 C 26.039062 -7.484375 28.296875 -8.367188 29.734375 -10.140625 C 30.890625 -11.566406 31.46875 -13.242188 31.46875 -15.171875 C 31.46875 -17.109375 30.890625 -18.78125 29.734375 -20.1875 C 28.296875 -21.96875 26.039062 -22.859375 22.96875 -22.859375 C 19.882812 -22.859375 17.617188 -21.96875 16.171875 -20.1875 C 15.015625 -18.78125 14.4375 -17.109375 14.4375 -15.171875 C 14.4375 -13.242188 15.015625 -11.566406 16.171875 -10.140625 C 17.617188 -8.367188 19.882812 -7.484375 22.96875 -7.484375 Z M 22.96875 -7.484375 "/></g></g></g><g fill="#d9d9d9" fill-opacity="1"><g transform="translate(294.518572, 126.001469)"><g><path d="M 21.359375 0.65625 C 13.953125 0.65625 8.738281 -0.878906 5.71875 -3.953125 C 3.175781 -6.535156 1.90625 -10.269531 1.90625 -15.15625 L 1.90625 -30.34375 L 14.640625 -30.34375 L 14.640625 -15.15625 C 14.640625 -13.039062 15 -11.367188 15.71875 -10.140625 C 16.75 -8.367188 18.628906 -7.484375 21.359375 -7.484375 C 24.109375 -7.484375 25.988281 -8.367188 27 -10.140625 C 27.71875 -11.410156 28.078125 -13.082031 28.078125 -15.15625 L 28.078125 -30.34375 L 40.828125 -30.34375 L 40.828125 -14.984375 C 40.828125 -10.210938 39.5625 -6.535156 37.03125 -3.953125 C 34 -0.878906 28.773438 0.65625 21.359375 0.65625 Z M 21.359375 0.65625 "/></g></g></g><g fill="#d9d9d9" fill-opacity="1"><g transform="translate(337.240864, 126.001469)"><g><path d="M 25.90625 0 L 13.15625 0 L 13.15625 -22.859375 L 1.265625 -22.859375 L 1.265625 -30.375 L 37.796875 -30.375 L 37.796875 -22.859375 L 25.90625 -22.859375 Z M 25.90625 0 "/></g></g></g></svg>