<svg xmlns="http://www.w3.org/2000/svg" xmlns:xlink="http://www.w3.org/1999/xlink" width="700" zoomAndPan="magnify" viewBox="0 0 525 225" height="300" preserveAspectRatio="xMidYMid meet" version="1.0"><defs><g/></defs><g fill="#d9d9d9" fill-opacity="1"><g transform="translate(90.042369, 126.001469)"><g><path d="M 51.15625 0 L 40.53125 0 L 33.03125 -19.71875 L 25.546875 0 L 14.921875 0 L 0.3125 -30.34375 L 13.234375 -30.34375 L 20.84375 -11.0625 L 29.015625 -30.34375 L 37.0625 -30.34375 L 45.234375 -11.0625 L 52.84375 -30.34375 L 65.75 -30.34375 Z M 51.15625 0 "/></g></g></g><g fill="#d9d9d9" fill-opacity="1"><g transform="translate(156.104278, 126.001469)"><g><path d="M 39.953125 0 L 3.390625 0 L 3.390625 -30.375 L 38.28125 -30.375 L 38.28125 -22.859375 L 16.125 -22.859375 L 16.125 -18.09375 L 34.859375 -18.09375 L 34.859375 -12.25 L 16.125 -12.25 L 16.125 -7.515625 L 39.953125 -7.515625 Z M 39.953125 0 "/></g></g></g><g fill="#d9d9d9" fill-opacity="1"><g transform="translate(197.747404, 126.001469)"><g><path d="M 38.828125 0 L 3.390625 0 L 3.390625 -30.375 L 16.125 -30.375 L 16.125 -7.515625 L 38.828125 -7.515625 Z M 38.828125 0 "/></g></g></g><g fill="#d9d9d9" fill-opacity="1"><g transform="translate(237.422638, 126.001469)"><g><path d="M 22.96875 0.65625 C 15.457031 0.65625 9.929688 -0.890625 6.390625 -3.984375 C 3.253906 -6.703125 1.6875 -10.425781 1.6875 -15.15625 C 1.6875 -19.882812 3.253906 -23.613281 6.390625 -26.34375 C 9.929688 -29.425781 15.457031 -30.96875 22.96875 -30.96875 C 27.363281 -30.96875 31 -30.460938 33.875 -29.453125 C 36.757812 -28.441406 39 -27.0625 40.59375 -25.3125 C 42.1875 -23.5625 43.242188 -21.554688 43.765625 -19.296875 L 30.375 -19.296875 C 29.03125 -21.648438 26.5625 -22.828125 22.96875 -22.828125 C 19.882812 -22.828125 17.617188 -21.941406 16.171875 -20.171875 C 15.015625 -18.753906 14.4375 -17.082031 14.4375 -15.15625 C 14.4375 -13.21875 15.015625 -11.546875 16.171875 -10.140625 C 17.617188 -8.359375 19.882812 -7.46875 22.96875 -7.46875 C 26.5625 -7.46875 29.03125 -8.65625 30.375 -11.03125 L 43.765625 -11.03125 C 43.242188 -8.757812 42.1875 -6.75 40.59375 -5 C 39 -3.25 36.757812 -1.867188 33.875 -0.859375 C 31 0.148438 27.363281 0.65625 22.96875 0.65625 Z M 22.96875 0.65625 "/></g></g></g><g fill="#d9d9d9" fill-opacity="1"><g transform="translate(282.874575, 126.001469)"><g><path d="M 22.96875 0.65625 C 15.457031 0.65625 9.929688 -0.890625 6.390625 -3.984375 C 3.253906 -6.710938 1.6875 -10.441406 1.6875 -15.171875 C 1.6875 -19.890625 3.253906 -23.613281 6.390625 -26.34375 C 9.929688 -29.4375 15.457031 -30.984375 22.96875 -30.984375 C 30.46875 -30.984375 35.988281 -29.4375 39.53125 -26.34375 C 42.664062 -23.613281 44.234375 -19.890625 44.234375 -15.171875 C 44.234375 -10.441406 42.664062 -6.710938 39.53125 -3.984375 C 35.988281 -0.890625 30.46875 0.65625 22.96875 0.65625 Z M 22.96875 -7.484375 C 26.039062 -7.484375 28.296875 -8.367188 29.734375 -10.140625 C 30.890625 -11.566406 31.46875 -13.242188 31.46875 -15.171875 C 31.46875 -17.109375 30.890625 -18.78125 29.734375 -20.1875 C 28.296875 -21.96875 26.039062 -22.859375 22.96875 -22.859375 C 19.882812 -22.859375 17.617188 -21.96875 16.171875 -20.1875 C 15.015625 -18.78125 14.4375 -17.109375 14.4375 -15.171875 C 14.4375 -13.242188 15.015625 -11.566406 16.171875 -10.140625 C 17.617188 -8.367188 19.882812 -7.484375 22.96875 -7.484375 Z M 22.96875 -7.484375 "/></g></g></g><g fill="#d9d9d9" fill-opacity="1"><g transform="translate(328.792046, 126.001469)"><g><path d="M 61.125 0 L 48.375 0 L 48.375 -19.359375 L 37 0 L 27.484375 0 L 16.125 -19.359375 L 16.125 0 L 3.390625 0 L 3.390625 -30.375 L 18.515625 -30.375 L 32.25 -8.671875 L 45.96875 -30.375 L 61.125 -30.375 Z M 61.125 0 "/></g></g></g><g fill="#d9d9d9" fill-opacity="1"><g transform="translate(393.288106, 126.001469)"><g><path d="M 39.953125 0 L 3.390625 0 L 3.390625 -30.375 L 38.28125 -30.375 L 38.28125 -22.859375 L 16.125 -22.859375 L 16.125 -18.09375 L 34.859375 -18.09375 L 34.859375 -12.25 L 16.125 -12.25 L 16.125 -7.515625 L 39.953125 -7.515625 Z M 39.953125 0 "/></g></g></g></svg>