<svg xmlns="http://www.w3.org/2000/svg" xmlns:xlink="http://www.w3.org/1999/xlink" width="700" zoomAndPan="magnify" viewBox="0 0 525 225" height="300" preserveAspectRatio="xMidYMid meet" version="1.0"><defs><g/></defs><g fill="#d9d9d9" fill-opacity="1"><g transform="translate(21.218153, 126.001469)"><g><path d="M 39.953125 0 L 3.390625 0 L 3.390625 -30.375 L 38.28125 -30.375 L 38.28125 -22.859375 L 16.125 -22.859375 L 16.125 -18.09375 L 34.859375 -18.09375 L 34.859375 -12.25 L 16.125 -12.25 L 16.125 -7.515625 L 39.953125 -7.515625 Z M 39.953125 0 "/></g></g></g><g fill="#d9d9d9" fill-opacity="1"><g transform="translate(62.861279, 126.001469)"><g><path d="M 20.0625 0.65625 C 15.957031 0.65625 12.648438 0.21875 10.140625 -0.65625 C 7.628906 -1.539062 5.71875 -2.753906 4.40625 -4.296875 C 3.09375 -5.847656 2.207031 -7.632812 1.75 -9.65625 L 15.28125 -9.65625 C 16.28125 -8.207031 17.875 -7.484375 20.0625 -7.484375 C 22.25 -7.484375 23.84375 -8.207031 24.84375 -9.65625 C 24.925781 -9.789062 24.96875 -9.914062 24.96875 -10.03125 C 24.96875 -10.414062 24.460938 -10.703125 23.453125 -10.890625 C 22.453125 -11.078125 20.945312 -11.222656 18.9375 -11.328125 C 16.414062 -11.429688 13.765625 -11.695312 10.984375 -12.125 C 4.785156 -13.082031 1.6875 -15.570312 1.6875 -19.59375 C 1.6875 -19.9375 1.707031 -20.296875 1.75 -20.671875 C 2.207031 -22.691406 3.09375 -24.472656 4.40625 -26.015625 C 5.71875 -27.566406 7.628906 -28.78125 10.140625 -29.65625 C 12.648438 -30.539062 15.957031 -30.984375 20.0625 -30.984375 C 24.164062 -30.984375 27.472656 -30.539062 29.984375 -29.65625 C 32.492188 -28.78125 34.40625 -27.566406 35.71875 -26.015625 C 37.03125 -24.472656 37.914062 -22.691406 38.375 -20.671875 L 24.84375 -20.671875 C 23.84375 -22.109375 22.25 -22.828125 20.0625 -22.828125 C 17.875 -22.828125 16.28125 -22.109375 15.28125 -20.671875 C 15.207031 -20.566406 15.171875 -20.460938 15.171875 -20.359375 C 15.171875 -20.023438 15.65625 -19.773438 16.625 -19.609375 C 17.59375 -19.441406 19.015625 -19.300781 20.890625 -19.1875 C 22.773438 -19.082031 24.78125 -18.898438 26.90625 -18.640625 C 29.039062 -18.390625 31.035156 -17.945312 32.890625 -17.3125 C 34.753906 -16.6875 36.207031 -15.765625 37.25 -14.546875 C 38.0625 -13.597656 38.46875 -12.394531 38.46875 -10.9375 C 38.46875 -10.53125 38.4375 -10.101562 38.375 -9.65625 C 37.914062 -7.632812 37.03125 -5.847656 35.71875 -4.296875 C 34.40625 -2.753906 32.492188 -1.539062 29.984375 -0.65625 C 27.472656 0.21875 24.164062 0.65625 20.0625 0.65625 Z M 20.0625 0.65625 "/></g></g></g><g fill="#d9d9d9" fill-opacity="1"><g transform="translate(103.023196, 126.001469)"><g><path d="M 22.96875 0.65625 C 15.457031 0.65625 9.929688 -0.890625 6.390625 -3.984375 C 3.253906 -6.710938 1.6875 -10.441406 1.6875 -15.171875 C 1.6875 -19.890625 3.253906 -23.613281 6.390625 -26.34375 C 9.929688 -29.4375 15.457031 -30.984375 22.96875 -30.984375 C 30.46875 -30.984375 35.988281 -29.4375 39.53125 -26.34375 C 42.664062 -23.613281 44.234375 -19.890625 44.234375 -15.171875 C 44.234375 -10.441406 42.664062 -6.710938 39.53125 -3.984375 C 35.988281 -0.890625 30.46875 0.65625 22.96875 0.65625 Z M 22.96875 -7.484375 C 26.039062 -7.484375 28.296875 -8.367188 29.734375 -10.140625 C 30.890625 -11.566406 31.46875 -13.242188 31.46875 -15.171875 C 31.46875 -17.109375 30.890625 -18.78125 29.734375 -20.1875 C 28.296875 -21.96875 26.039062 -22.859375 22.96875 -22.859375 C 19.882812 -22.859375 17.617188 -21.96875 16.171875 -20.1875 C 15.015625 -18.78125 14.4375 -17.109375 14.4375 -15.171875 C 14.4375 -13.242188 15.015625 -11.566406 16.171875 -10.140625 C 17.617188 -8.367188 19.882812 -7.484375 22.96875 -7.484375 Z M 22.96875 -7.484375 "/></g></g></g><g fill="#d9d9d9" fill-opacity="1"><g transform="translate(148.940666, 126.001469)"><g><path d="M 25.90625 0 L 13.15625 0 L 13.15625 -22.859375 L 1.265625 -22.859375 L 1.265625 -30.375 L 37.796875 -30.375 L 37.796875 -22.859375 L 25.90625 -22.859375 Z M 25.90625 0 "/></g></g></g><g fill="#d9d9d9" fill-opacity="1"><g transform="translate(188.002257, 126.001469)"><g><path d="M 39.953125 0 L 3.390625 0 L 3.390625 -30.375 L 38.28125 -30.375 L 38.28125 -22.859375 L 16.125 -22.859375 L 16.125 -18.09375 L 34.859375 -18.09375 L 34.859375 -12.25 L 16.125 -12.25 L 16.125 -7.515625 L 39.953125 -7.515625 Z M 39.953125 0 "/></g></g></g><g fill="#d9d9d9" fill-opacity="1"><g transform="translate(229.645383, 126.001469)"><g><path d="M 44.84375 0 L 32.796875 0 C 32.253906 -0.757812 31.867188 -1.734375 31.640625 -2.921875 C 31.441406 -3.835938 31.144531 -4.734375 30.75 -5.609375 C 30.351562 -6.492188 29.671875 -7.226562 28.703125 -7.8125 C 27.742188 -8.40625 26.3125 -8.722656 24.40625 -8.765625 L 16.125 -8.765625 L 16.125 0 L 3.390625 0 L 3.390625 -30.375 L 24.109375 -30.375 C 29.054688 -30.375 33.050781 -30 36.09375 -29.25 C 39.132812 -28.507812 41.351562 -27.347656 42.75 -25.765625 C 44.144531 -24.179688 44.84375 -22.113281 44.84375 -19.5625 C 44.84375 -17.425781 44.359375 -15.628906 43.390625 -14.171875 C 42.429688 -12.722656 40.90625 -11.578125 38.8125 -10.734375 C 40.832031 -9.898438 42.140625 -8.898438 42.734375 -7.734375 C 43.335938 -6.566406 43.710938 -5.285156 43.859375 -3.890625 C 43.992188 -2.648438 44.320312 -1.351562 44.84375 0 Z M 16.125 -16.25 L 23.40625 -16.28125 C 25.4375 -16.28125 27.035156 -16.367188 28.203125 -16.546875 C 29.378906 -16.734375 30.242188 -16.984375 30.796875 -17.296875 C 31.359375 -17.617188 31.71875 -17.972656 31.875 -18.359375 C 32.03125 -18.742188 32.109375 -19.144531 32.109375 -19.5625 C 32.109375 -19.96875 32.03125 -20.367188 31.875 -20.765625 C 31.71875 -21.160156 31.359375 -21.515625 30.796875 -21.828125 C 30.242188 -22.148438 29.378906 -22.398438 28.203125 -22.578125 C 27.035156 -22.765625 25.4375 -22.859375 23.40625 -22.859375 L 16.125 -22.859375 Z M 16.125 -16.25 "/></g></g></g><g fill="#d9d9d9" fill-opacity="1"><g transform="translate(276.176486, 126.001469)"><g><path d="M 16.125 0 L 3.390625 0 L 3.390625 -30.375 L 16.125 -30.375 Z M 16.125 0 "/></g></g></g><g fill="#d9d9d9" fill-opacity="1"><g transform="translate(295.686121, 126.001469)"><g><path d="M 22.96875 0.65625 C 15.457031 0.65625 9.929688 -0.890625 6.390625 -3.984375 C 3.253906 -6.703125 1.6875 -10.425781 1.6875 -15.15625 C 1.6875 -19.882812 3.253906 -23.613281 6.390625 -26.34375 C 9.929688 -29.425781 15.457031 -30.96875 22.96875 -30.96875 C 27.363281 -30.96875 31 -30.460938 33.875 -29.453125 C 36.757812 -28.441406 39 -27.0625 40.59375 -25.3125 C 42.1875 -23.5625 43.242188 -21.554688 43.765625 -19.296875 L 30.375 -19.296875 C 29.03125 -21.648438 26.5625 -22.828125 22.96875 -22.828125 C 19.882812 -22.828125 17.617188 -21.941406 16.171875 -20.171875 C 15.015625 -18.753906 14.4375 -17.082031 14.4375 -15.15625 C 14.4375 -13.21875 15.015625 -11.546875 16.171875 -10.140625 C 17.617188 -8.359375 19.882812 -7.46875 22.96875 -7.46875 C 26.5625 -7.46875 29.03125 -8.65625 30.375 -11.03125 L 43.765625 -11.03125 C 43.242188 -8.757812 42.1875 -6.75 40.59375 -5 C 39 -3.25 36.757812 -1.867188 33.875 -0.859375 C 31 0.148438 27.363281 0.65625 22.96875 0.65625 Z M 22.96875 0.65625 "/></g></g></g><g fill="#d9d9d9" fill-opacity="1"><g transform="translate(351.887412, 126.001469)"><g><path d="M 22.96875 0.65625 C 15.457031 0.65625 9.929688 -0.890625 6.390625 -3.984375 C 3.253906 -6.710938 1.6875 -10.4375 1.6875 -15.15625 C 1.6875 -19.882812 3.253906 -23.613281 6.390625 -26.34375 C 9.929688 -29.4375 15.457031 -30.984375 22.96875 -30.984375 C 27.238281 -30.984375 30.789062 -30.503906 33.625 -29.546875 C 36.46875 -28.585938 38.695312 -27.273438 40.3125 -25.609375 C 41.925781 -23.953125 43.03125 -22.046875 43.625 -19.890625 L 29.984375 -19.890625 C 28.566406 -21.847656 26.226562 -22.828125 22.96875 -22.828125 C 19.882812 -22.828125 17.617188 -21.945312 16.171875 -20.1875 C 15.015625 -18.757812 14.4375 -17.082031 14.4375 -15.15625 C 14.4375 -13.21875 15.015625 -11.546875 16.171875 -10.140625 C 17.617188 -8.367188 19.882812 -7.484375 22.96875 -7.484375 C 25.445312 -7.484375 27.3125 -7.695312 28.5625 -8.125 C 29.8125 -8.5625 30.722656 -9.125 31.296875 -9.8125 L 26.328125 -9.8125 L 26.328125 -15.15625 L 43.625 -15.15625 L 43.625 0.015625 L 38.328125 0.015625 L 37.25 -2.921875 C 33.875 -0.535156 29.113281 0.65625 22.96875 0.65625 Z M 22.96875 0.65625 "/></g></g></g><g fill="#d9d9d9" fill-opacity="1"><g transform="translate(398.037656, 126.001469)"><g><path d="M 16.125 0 L 3.390625 0 L 3.390625 -30.375 L 16.125 -30.375 Z M 16.125 0 "/></g></g></g><g fill="#d9d9d9" fill-opacity="1"><g transform="translate(417.547268, 126.001469)"><g><path d="M 44.84375 0 L 32.796875 0 C 32.253906 -0.757812 31.867188 -1.734375 31.640625 -2.921875 C 31.441406 -3.835938 31.144531 -4.734375 30.75 -5.609375 C 30.351562 -6.492188 29.671875 -7.226562 28.703125 -7.8125 C 27.742188 -8.40625 26.3125 -8.722656 24.40625 -8.765625 L 16.125 -8.765625 L 16.125 0 L 3.390625 0 L 3.390625 -30.375 L 24.109375 -30.375 C 29.054688 -30.375 33.050781 -30 36.09375 -29.25 C 39.132812 -28.507812 41.351562 -27.347656 42.75 -25.765625 C 44.144531 -24.179688 44.84375 -22.113281 44.84375 -19.5625 C 44.84375 -17.425781 44.359375 -15.628906 43.390625 -14.171875 C 42.429688 -12.722656 40.90625 -11.578125 38.8125 -10.734375 C 40.832031 -9.898438 42.140625 -8.898438 42.734375 -7.734375 C 43.335938 -6.566406 43.710938 -5.285156 43.859375 -3.890625 C 43.992188 -2.648438 44.320312 -1.351562 44.84375 0 Z M 16.125 -16.25 L 23.40625 -16.28125 C 25.4375 -16.28125 27.035156 -16.367188 28.203125 -16.546875 C 29.378906 -16.734375 30.242188 -16.984375 30.796875 -17.296875 C 31.359375 -17.617188 31.71875 -17.972656 31.875 -18.359375 C 32.03125 -18.742188 32.109375 -19.144531 32.109375 -19.5625 C 32.109375 -19.96875 32.03125 -20.367188 31.875 -20.765625 C 31.71875 -21.160156 31.359375 -21.515625 30.796875 -21.828125 C 30.242188 -22.148438 29.378906 -22.398438 28.203125 -22.578125 C 27.035156 -22.765625 25.4375 -22.859375 23.40625 -22.859375 L 16.125 -22.859375 Z M 16.125 -16.25 "/></g></g></g><g fill="#d9d9d9" fill-opacity="1"><g transform="translate(464.078394, 126.001469)"><g><path d="M 38.828125 0 L 3.390625 0 L 3.390625 -30.375 L 16.125 -30.375 L 16.125 -7.515625 L 38.828125 -7.515625 Z M 38.828125 0 "/></g></g></g></svg>